<svg width="117" height="31" viewBox="0 0 117 31" fill="none" xmlns="http://www.w3.org/2000/svg">
<path d="M39.9668 25.6301C39.0689 25.6301 38.3547 25.403 37.8241 24.9488C37.3072 24.4946 37.0487 23.6963 37.0487 22.554V5.41864H40.4565V21.6043C40.4565 22.2374 40.8306 22.554 41.5788 22.554C41.8373 22.554 42.1434 22.5195 42.4971 22.4507V25.3617C41.5584 25.5406 40.715 25.6301 39.9668 25.6301ZM45.0478 8.57732V5.41864H48.578V8.57732H45.0478ZM45.1294 25.3617V11.2612H48.4964V25.3617H45.1294ZM52.5367 25.3617V11.2612H55.9241V12.8921C56.4547 12.2452 57.0873 11.7635 57.8219 11.447C58.5565 11.1166 59.2979 10.9515 60.0461 10.9515C61.1888 10.9515 62.1411 11.2336 62.9029 11.7979C63.6647 12.3485 64.2157 13.071 64.5558 13.9657C64.9095 14.874 65.0863 15.8443 65.0863 16.8766V25.3617H61.7194V17.3308C61.7194 16.3811 61.4881 15.6104 61.0256 15.0185C60.563 14.4267 59.9101 14.1308 59.0666 14.1308C58.0735 14.1308 57.2981 14.4198 56.7404 14.9979C56.1962 15.5622 55.9241 16.443 55.9241 17.6405V25.3617H52.5367ZM73.6976 25.6301C72.7861 25.6301 72.0039 25.4649 71.3509 25.1346C70.6843 24.7905 70.181 24.3088 69.8409 23.6894C69.4872 23.0563 69.3103 22.3131 69.3103 21.4598V14.1308H67.0657V11.2612H69.3716V7.75152L72.6977 5.29477V11.2612H76.2075V14.1308H72.6977V20.8404C72.6977 21.4873 72.8338 21.9415 73.1058 22.203C73.3915 22.4645 73.7792 22.5952 74.269 22.5952C74.5955 22.5952 74.9288 22.5471 75.2689 22.4507C75.6089 22.3544 75.9218 22.2374 76.2075 22.0998V25.2172C75.9218 25.3273 75.5409 25.4236 75.0648 25.5062C74.6023 25.5888 74.1465 25.6301 73.6976 25.6301ZM79.146 25.3617V11.2612H82.4721V13.6147C82.7578 12.7889 83.2475 12.142 83.9413 11.6741C84.6487 11.1923 85.4038 10.9515 86.2064 10.9515C86.6825 10.9515 87.145 11.0409 87.594 11.2199C88.0429 11.385 88.4306 11.6397 88.7571 11.9837L87.2063 14.7914C86.7301 14.4749 86.2268 14.3166 85.6962 14.3166C85.1385 14.3166 84.6079 14.4955 84.1046 14.8534C83.6148 15.225 83.2135 15.7893 82.9006 16.5463C82.5877 17.3033 82.4313 18.2529 82.4313 19.3953V25.3617H79.146ZM95.6951 25.6301C94.1579 25.6301 92.8587 25.2997 91.7976 24.6391C90.7365 23.9647 89.9475 23.077 89.4305 21.9759C88.9 20.8748 88.6347 19.6637 88.6347 18.3424C88.6347 17.0762 88.8863 15.8719 89.3897 14.7295C89.893 13.6009 90.6549 12.6925 91.6751 12.0044C92.709 11.3025 93.9742 10.9515 95.4706 10.9515C96.9943 10.9515 98.239 11.3093 99.2049 12.025C100.171 12.7407 100.865 13.6353 101.286 14.7089C101.708 15.7824 101.919 16.9041 101.919 18.074C101.919 18.3493 101.912 18.6177 101.898 18.8792C101.871 19.1407 101.837 19.3196 101.796 19.4159H92.2261C92.5526 21.4804 93.7157 22.5127 95.7155 22.5127C96.3821 22.5127 96.9875 22.3957 97.5316 22.1617C98.0758 21.9277 98.5859 21.5492 99.0621 21.0262L101.409 23.0907C100.647 23.9441 99.7967 24.584 98.858 25.0107C97.9193 25.4236 96.865 25.6301 95.6951 25.6301ZM92.2261 16.9385H98.5723C98.4635 15.9476 98.137 15.1837 97.5928 14.6469C97.0487 14.1102 96.3345 13.8418 95.4502 13.8418C93.6817 13.8418 92.607 14.874 92.2261 16.9385ZM102.674 25.3617L107.428 18.2392L102.674 11.2612H106.816L109.694 15.9063L112.591 11.2612H116.754L111.959 18.2392L116.754 25.3617H112.591L109.694 20.6133L106.816 25.3617H102.674Z" fill="black"/>
<path d="M15.0748 30.7139C23.4008 30.7139 30.1496 23.886 30.1496 15.4624C30.1496 7.03883 23.4008 0.210938 15.0748 0.210938C6.74881 0.210938 0 7.03883 0 15.4624C0 23.886 6.74881 30.7139 15.0748 30.7139ZM13.9602 6.33154H15.8446V14.8018H24.2177V16.7083H13.9602V6.33154ZM8.34579 6.7481H10.2301V20.3629H23.6872V22.2693H8.34579V6.7481Z" fill="url(#paint0_linear_17_62)"/>
<defs>
<linearGradient id="paint0_linear_17_62" x1="0" y1="0.210938" x2="2743.77" y2="1264.83" gradientUnits="userSpaceOnUse">
<stop stop-color="#0D2175"/>
<stop offset="1" stop-color="#1F1EFB"/>
</linearGradient>
</defs>
</svg>
