<svg width="17" height="19" viewBox="0 0 17 19" fill="none" xmlns="http://www.w3.org/2000/svg">
<path d="M5.62519 4.9C5.62519 3.31156 6.91176 2.025 8.50019 2.025C10.0886 2.025 11.3752 3.31156 11.3752 4.9C11.3752 6.48844 10.0886 7.775 8.50019 7.775C6.91176 7.775 5.62519 6.48844 5.62519 4.9ZM13.1002 4.9C13.1002 2.35922 11.041 0.299999 8.50019 0.299999C5.95941 0.299999 3.90019 2.35922 3.90019 4.9C3.90019 7.44078 5.95941 9.5 8.50019 9.5C11.041 9.5 13.1002 7.44078 13.1002 4.9ZM2.1752 17.55C2.1752 15.0092 4.23441 12.95 6.77519 12.95H10.2252C12.766 12.95 14.8252 15.0092 14.8252 17.55V17.8375C14.8252 18.3155 15.2097 18.7 15.6877 18.7C16.1657 18.7 16.5502 18.3155 16.5502 17.8375V17.55C16.5502 14.0569 13.7183 11.225 10.2252 11.225H6.77519C3.28207 11.225 0.450195 14.0569 0.450195 17.55V17.8375C0.450195 18.3155 0.834727 18.7 1.3127 18.7C1.79066 18.7 2.1752 18.3155 2.1752 17.8375V17.55Z" fill="black"/>
</svg>
